<mxfile host="app.diagrams.net" agent="Mozilla/5.0 (Windows NT 10.0; Win64; x64) AppleWebKit/537.36 (KHTML, like Gecko) Chrome/131.0.0.0 Safari/537.36" version="26.0.4">
  <diagram name="Page-1" id="ylDPdNrXPn1Qpc4dRx3r">
    <mxGraphModel dx="956" dy="515" grid="1" gridSize="10" guides="1" tooltips="1" connect="1" arrows="1" fold="1" page="1" pageScale="1" pageWidth="827" pageHeight="583" math="0" shadow="0">
      <root>
        <mxCell id="0" />
        <mxCell id="1" parent="0" />
        <mxCell id="ndKudGg0fzIpXVuhii56-19" value="" style="group" vertex="1" connectable="0" parent="1">
          <mxGeometry x="40" y="40" width="130" height="120" as="geometry" />
        </mxCell>
        <mxCell id="ndKudGg0fzIpXVuhii56-7" value="" style="rounded=0;whiteSpace=wrap;html=1;" vertex="1" parent="ndKudGg0fzIpXVuhii56-19">
          <mxGeometry width="130" height="120" as="geometry" />
        </mxCell>
        <mxCell id="ndKudGg0fzIpXVuhii56-3" value="&lt;font style=&quot;font-size: 14px;&quot;&gt;Global Variables&lt;/font&gt;" style="text;html=1;align=left;verticalAlign=middle;whiteSpace=wrap;rounded=0;" vertex="1" parent="ndKudGg0fzIpXVuhii56-19">
          <mxGeometry x="2.3214285714285716" width="116.07142857142858" height="39.996" as="geometry" />
        </mxCell>
        <mxCell id="ndKudGg0fzIpXVuhii56-8" value="stepsPerRev&lt;div&gt;mmPerRev&lt;/div&gt;&lt;div&gt;stepsPerDeg&lt;/div&gt;&lt;div&gt;stepsL&lt;/div&gt;&lt;div&gt;stepsR&lt;/div&gt;" style="text;html=1;align=left;verticalAlign=middle;whiteSpace=wrap;rounded=0;" vertex="1" parent="ndKudGg0fzIpXVuhii56-19">
          <mxGeometry x="14.92857142857143" y="28.333333333333336" width="116.07142857142858" height="80" as="geometry" />
        </mxCell>
        <mxCell id="ndKudGg0fzIpXVuhii56-20" value="&lt;font style=&quot;font-size: 20px;&quot;&gt;MOTOR SOFTWARE&lt;/font&gt;" style="rounded=0;whiteSpace=wrap;html=1;" vertex="1" parent="1">
          <mxGeometry x="324" y="10" width="216" height="50" as="geometry" />
        </mxCell>
        <mxCell id="ndKudGg0fzIpXVuhii56-42" value="" style="group" vertex="1" connectable="0" parent="1">
          <mxGeometry x="40" y="180" width="120" height="130" as="geometry" />
        </mxCell>
        <mxCell id="ndKudGg0fzIpXVuhii56-10" style="edgeStyle=orthogonalEdgeStyle;rounded=0;orthogonalLoop=1;jettySize=auto;html=1;exitX=0.5;exitY=1;exitDx=0;exitDy=0;entryX=0.5;entryY=0;entryDx=0;entryDy=0;" edge="1" parent="ndKudGg0fzIpXVuhii56-42" source="ndKudGg0fzIpXVuhii56-1" target="ndKudGg0fzIpXVuhii56-9">
          <mxGeometry relative="1" as="geometry" />
        </mxCell>
        <mxCell id="ndKudGg0fzIpXVuhii56-1" value="MotorResetSteps" style="rounded=0;whiteSpace=wrap;html=1;" vertex="1" parent="ndKudGg0fzIpXVuhii56-42">
          <mxGeometry width="120" height="30" as="geometry" />
        </mxCell>
        <mxCell id="ndKudGg0fzIpXVuhii56-9" value="stepsL = 0&lt;div&gt;stepsR = 0&lt;/div&gt;" style="rounded=0;whiteSpace=wrap;html=1;" vertex="1" parent="ndKudGg0fzIpXVuhii56-42">
          <mxGeometry y="90" width="120" height="40" as="geometry" />
        </mxCell>
        <mxCell id="ndKudGg0fzIpXVuhii56-43" value="" style="group" vertex="1" connectable="0" parent="1">
          <mxGeometry x="180" y="180" width="280" height="130" as="geometry" />
        </mxCell>
        <mxCell id="ndKudGg0fzIpXVuhii56-11" style="edgeStyle=orthogonalEdgeStyle;rounded=0;orthogonalLoop=1;jettySize=auto;html=1;exitX=0.5;exitY=1;exitDx=0;exitDy=0;entryX=0.5;entryY=0;entryDx=0;entryDy=0;" edge="1" parent="ndKudGg0fzIpXVuhii56-43" source="ndKudGg0fzIpXVuhii56-12" target="ndKudGg0fzIpXVuhii56-13">
          <mxGeometry relative="1" as="geometry">
            <Array as="points">
              <mxPoint x="140" y="50" />
              <mxPoint x="60" y="50" />
            </Array>
          </mxGeometry>
        </mxCell>
        <mxCell id="ndKudGg0fzIpXVuhii56-14" value="motor = R" style="edgeLabel;html=1;align=center;verticalAlign=middle;resizable=0;points=[];" vertex="1" connectable="0" parent="ndKudGg0fzIpXVuhii56-11">
          <mxGeometry x="-0.2857" relative="1" as="geometry">
            <mxPoint x="-54" y="20" as="offset" />
          </mxGeometry>
        </mxCell>
        <mxCell id="ndKudGg0fzIpXVuhii56-12" value="MotorSetSpeed" style="rounded=0;whiteSpace=wrap;html=1;" vertex="1" parent="ndKudGg0fzIpXVuhii56-43">
          <mxGeometry x="80" width="120" height="30" as="geometry" />
        </mxCell>
        <mxCell id="ndKudGg0fzIpXVuhii56-13" value="OCR2A = 255*percentage/100" style="rounded=0;whiteSpace=wrap;html=1;" vertex="1" parent="ndKudGg0fzIpXVuhii56-43">
          <mxGeometry y="90" width="120" height="40" as="geometry" />
        </mxCell>
        <mxCell id="ndKudGg0fzIpXVuhii56-16" value="" style="endArrow=classic;html=1;rounded=0;" edge="1" parent="ndKudGg0fzIpXVuhii56-43">
          <mxGeometry width="50" height="50" relative="1" as="geometry">
            <mxPoint x="140" y="50" as="sourcePoint" />
            <mxPoint x="220" y="90" as="targetPoint" />
            <Array as="points">
              <mxPoint x="220" y="50" />
            </Array>
          </mxGeometry>
        </mxCell>
        <mxCell id="ndKudGg0fzIpXVuhii56-18" value="motor = L" style="edgeLabel;html=1;align=center;verticalAlign=middle;resizable=0;points=[];" vertex="1" connectable="0" parent="ndKudGg0fzIpXVuhii56-16">
          <mxGeometry x="-0.1143" y="-2" relative="1" as="geometry">
            <mxPoint x="27" y="20" as="offset" />
          </mxGeometry>
        </mxCell>
        <mxCell id="ndKudGg0fzIpXVuhii56-17" value="OCR0A = 255*percentage/100" style="rounded=0;whiteSpace=wrap;html=1;" vertex="1" parent="ndKudGg0fzIpXVuhii56-43">
          <mxGeometry x="160" y="90" width="120" height="40" as="geometry" />
        </mxCell>
        <mxCell id="ndKudGg0fzIpXVuhii56-45" value="" style="group" vertex="1" connectable="0" parent="1">
          <mxGeometry x="480" y="180" width="330" height="230" as="geometry" />
        </mxCell>
        <mxCell id="ndKudGg0fzIpXVuhii56-39" value="Return" style="rounded=0;whiteSpace=wrap;html=1;" vertex="1" parent="ndKudGg0fzIpXVuhii56-45">
          <mxGeometry x="271.7647058823529" y="177.29166666666669" width="58.23529411764706" height="28.75" as="geometry" />
        </mxCell>
        <mxCell id="ndKudGg0fzIpXVuhii56-44" value="" style="group" vertex="1" connectable="0" parent="ndKudGg0fzIpXVuhii56-45">
          <mxGeometry width="271.7647058823529" height="230" as="geometry" />
        </mxCell>
        <mxCell id="ndKudGg0fzIpXVuhii56-24" style="edgeStyle=orthogonalEdgeStyle;rounded=0;orthogonalLoop=1;jettySize=auto;html=1;exitX=0.5;exitY=1;exitDx=0;exitDy=0;entryX=0.5;entryY=0;entryDx=0;entryDy=0;" edge="1" parent="ndKudGg0fzIpXVuhii56-44" source="ndKudGg0fzIpXVuhii56-21" target="ndKudGg0fzIpXVuhii56-23">
          <mxGeometry relative="1" as="geometry" />
        </mxCell>
        <mxCell id="ndKudGg0fzIpXVuhii56-21" value="MotorMove" style="rounded=0;whiteSpace=wrap;html=1;" vertex="1" parent="ndKudGg0fzIpXVuhii56-44">
          <mxGeometry x="84.92647058823529" width="116.47058823529412" height="28.75" as="geometry" />
        </mxCell>
        <mxCell id="ndKudGg0fzIpXVuhii56-23" value="&lt;div&gt;StepstoMove = (distanceToMove * stepsPerRev) / mmPerRev&lt;/div&gt;&lt;div&gt;&lt;span style=&quot;background-color: transparent; color: light-dark(rgb(0, 0, 0), rgb(255, 255, 255));&quot;&gt;&lt;br&gt;&lt;/span&gt;&lt;/div&gt;&lt;div&gt;&lt;span style=&quot;background-color: transparent; color: light-dark(rgb(0, 0, 0), rgb(255, 255, 255));&quot;&gt;pwmR = 0.04*(StepstoMove - stepsR) + 30&lt;/span&gt;&lt;/div&gt;&lt;div&gt;&lt;span style=&quot;text-align: left; background-color: transparent; color: light-dark(rgb(0, 0, 0), rgb(255, 255, 255));&quot;&gt;pwmL&amp;nbsp; = 0.04*(StepstoMove - stepsL) + 30&lt;/span&gt;&lt;/div&gt;" style="rounded=0;whiteSpace=wrap;html=1;" vertex="1" parent="ndKudGg0fzIpXVuhii56-44">
          <mxGeometry x="14.558823529411764" y="60.375" width="257.20588235294116" height="74.75" as="geometry" />
        </mxCell>
        <mxCell id="ndKudGg0fzIpXVuhii56-33" style="edgeStyle=orthogonalEdgeStyle;rounded=0;orthogonalLoop=1;jettySize=auto;html=1;exitX=0.004;exitY=0.47;exitDx=0;exitDy=0;exitPerimeter=0;" edge="1" parent="ndKudGg0fzIpXVuhii56-44" source="ndKudGg0fzIpXVuhii56-28">
          <mxGeometry relative="1" as="geometry">
            <mxPoint x="142.6764705882353" y="47.91666666666667" as="targetPoint" />
            <mxPoint x="11.647058823529411" y="191.66666666666669" as="sourcePoint" />
            <Array as="points">
              <mxPoint x="14.558823529411764" y="191.66666666666669" />
              <mxPoint y="191.66666666666669" />
              <mxPoint y="47.91666666666667" />
            </Array>
          </mxGeometry>
        </mxCell>
        <mxCell id="ndKudGg0fzIpXVuhii56-28" value="MotorSetSpeed" style="rounded=0;whiteSpace=wrap;html=1;" vertex="1" parent="ndKudGg0fzIpXVuhii56-44">
          <mxGeometry x="14.558823529411764" y="167.70833333333334" width="99.48529411764706" height="47.91666666666667" as="geometry" />
        </mxCell>
        <mxCell id="ndKudGg0fzIpXVuhii56-31" style="edgeStyle=orthogonalEdgeStyle;rounded=0;orthogonalLoop=1;jettySize=auto;html=1;exitX=0;exitY=0.5;exitDx=0;exitDy=0;entryX=1;entryY=0.5;entryDx=0;entryDy=0;" edge="1" parent="ndKudGg0fzIpXVuhii56-44" source="ndKudGg0fzIpXVuhii56-30" target="ndKudGg0fzIpXVuhii56-28">
          <mxGeometry relative="1" as="geometry">
            <mxPoint x="131.02941176470566" y="191.73275862068968" as="targetPoint" />
            <Array as="points" />
          </mxGeometry>
        </mxCell>
        <mxCell id="ndKudGg0fzIpXVuhii56-32" value="YES" style="edgeLabel;html=1;align=center;verticalAlign=middle;resizable=0;points=[];" vertex="1" connectable="0" parent="ndKudGg0fzIpXVuhii56-31">
          <mxGeometry x="-0.0234" y="2" relative="1" as="geometry">
            <mxPoint x="4" y="-12" as="offset" />
          </mxGeometry>
        </mxCell>
        <mxCell id="ndKudGg0fzIpXVuhii56-30" value="PWM &amp;gt; 30" style="rhombus;whiteSpace=wrap;html=1;" vertex="1" parent="ndKudGg0fzIpXVuhii56-44">
          <mxGeometry x="150.44117647058823" y="153.33333333333334" width="77.6470588235294" height="76.66666666666667" as="geometry" />
        </mxCell>
        <mxCell id="ndKudGg0fzIpXVuhii56-34" style="edgeStyle=orthogonalEdgeStyle;rounded=0;orthogonalLoop=1;jettySize=auto;html=1;exitX=0.75;exitY=1;exitDx=0;exitDy=0;entryX=0.501;entryY=-0.04;entryDx=0;entryDy=0;entryPerimeter=0;" edge="1" parent="ndKudGg0fzIpXVuhii56-44" source="ndKudGg0fzIpXVuhii56-23" target="ndKudGg0fzIpXVuhii56-30">
          <mxGeometry relative="1" as="geometry" />
        </mxCell>
        <mxCell id="ndKudGg0fzIpXVuhii56-40" value="" style="edgeStyle=orthogonalEdgeStyle;rounded=0;orthogonalLoop=1;jettySize=auto;html=1;exitX=1;exitY=0.5;exitDx=0;exitDy=0;" edge="1" parent="ndKudGg0fzIpXVuhii56-45" source="ndKudGg0fzIpXVuhii56-30" target="ndKudGg0fzIpXVuhii56-39">
          <mxGeometry relative="1" as="geometry">
            <mxPoint x="262.05882352941177" y="191.7579365079365" as="targetPoint" />
            <mxPoint x="228.08823529411765" y="191.66666666666669" as="sourcePoint" />
          </mxGeometry>
        </mxCell>
        <mxCell id="ndKudGg0fzIpXVuhii56-41" value="NO" style="edgeLabel;html=1;align=center;verticalAlign=middle;resizable=0;points=[];" vertex="1" connectable="0" parent="ndKudGg0fzIpXVuhii56-40">
          <mxGeometry x="-0.5875" y="2" relative="1" as="geometry">
            <mxPoint x="8" y="-8" as="offset" />
          </mxGeometry>
        </mxCell>
        <mxCell id="ndKudGg0fzIpXVuhii56-71" value="" style="group" vertex="1" connectable="0" parent="1">
          <mxGeometry x="50" y="360" width="340" height="160" as="geometry" />
        </mxCell>
        <mxCell id="ndKudGg0fzIpXVuhii56-63" style="edgeStyle=orthogonalEdgeStyle;rounded=0;orthogonalLoop=1;jettySize=auto;html=1;exitX=0.5;exitY=1;exitDx=0;exitDy=0;entryX=0.5;entryY=0;entryDx=0;entryDy=0;" edge="1" parent="ndKudGg0fzIpXVuhii56-71" source="ndKudGg0fzIpXVuhii56-61" target="ndKudGg0fzIpXVuhii56-62">
          <mxGeometry relative="1" as="geometry" />
        </mxCell>
        <mxCell id="ndKudGg0fzIpXVuhii56-61" value="MotorRotate" style="rounded=0;whiteSpace=wrap;html=1;" vertex="1" parent="ndKudGg0fzIpXVuhii56-71">
          <mxGeometry x="110" width="120" height="30" as="geometry" />
        </mxCell>
        <mxCell id="ndKudGg0fzIpXVuhii56-67" style="edgeStyle=orthogonalEdgeStyle;rounded=0;orthogonalLoop=1;jettySize=auto;html=1;exitX=1;exitY=0.5;exitDx=0;exitDy=0;entryX=0.5;entryY=0;entryDx=0;entryDy=0;" edge="1" parent="ndKudGg0fzIpXVuhii56-71" source="ndKudGg0fzIpXVuhii56-62" target="ndKudGg0fzIpXVuhii56-66">
          <mxGeometry relative="1" as="geometry" />
        </mxCell>
        <mxCell id="ndKudGg0fzIpXVuhii56-70" value="NO" style="edgeLabel;html=1;align=center;verticalAlign=middle;resizable=0;points=[];" vertex="1" connectable="0" parent="ndKudGg0fzIpXVuhii56-67">
          <mxGeometry x="-0.2133" y="2" relative="1" as="geometry">
            <mxPoint x="-9" y="-8" as="offset" />
          </mxGeometry>
        </mxCell>
        <mxCell id="ndKudGg0fzIpXVuhii56-68" style="edgeStyle=orthogonalEdgeStyle;rounded=0;orthogonalLoop=1;jettySize=auto;html=1;exitX=0;exitY=0.5;exitDx=0;exitDy=0;entryX=0.5;entryY=0;entryDx=0;entryDy=0;" edge="1" parent="ndKudGg0fzIpXVuhii56-71" source="ndKudGg0fzIpXVuhii56-62" target="ndKudGg0fzIpXVuhii56-65">
          <mxGeometry relative="1" as="geometry" />
        </mxCell>
        <mxCell id="ndKudGg0fzIpXVuhii56-69" value="YES" style="edgeLabel;html=1;align=center;verticalAlign=middle;resizable=0;points=[];" vertex="1" connectable="0" parent="ndKudGg0fzIpXVuhii56-68">
          <mxGeometry x="-0.24" y="3" relative="1" as="geometry">
            <mxPoint x="8" y="-12" as="offset" />
          </mxGeometry>
        </mxCell>
        <mxCell id="ndKudGg0fzIpXVuhii56-62" value="Ang &amp;gt; 0" style="rhombus;whiteSpace=wrap;html=1;" vertex="1" parent="ndKudGg0fzIpXVuhii56-71">
          <mxGeometry x="140" y="50" width="60" height="60" as="geometry" />
        </mxCell>
        <mxCell id="ndKudGg0fzIpXVuhii56-74" style="edgeStyle=orthogonalEdgeStyle;rounded=0;orthogonalLoop=1;jettySize=auto;html=1;exitX=1;exitY=0.5;exitDx=0;exitDy=0;" edge="1" parent="ndKudGg0fzIpXVuhii56-71" source="ndKudGg0fzIpXVuhii56-65">
          <mxGeometry relative="1" as="geometry">
            <mxPoint x="170" y="180" as="targetPoint" />
          </mxGeometry>
        </mxCell>
        <mxCell id="ndKudGg0fzIpXVuhii56-65" value="Rotate MotorL&amp;nbsp;&lt;div&gt;more than&lt;/div&gt;&lt;div&gt;MotorR&lt;/div&gt;" style="rounded=0;whiteSpace=wrap;html=1;" vertex="1" parent="ndKudGg0fzIpXVuhii56-71">
          <mxGeometry y="100" width="120" height="60" as="geometry" />
        </mxCell>
        <mxCell id="ndKudGg0fzIpXVuhii56-66" value="Rotate MotorR&lt;div&gt;more than&lt;/div&gt;&lt;div&gt;MotorL&lt;/div&gt;" style="rounded=0;whiteSpace=wrap;html=1;" vertex="1" parent="ndKudGg0fzIpXVuhii56-71">
          <mxGeometry x="220" y="100" width="120" height="60" as="geometry" />
        </mxCell>
        <mxCell id="ndKudGg0fzIpXVuhii56-72" value="Return" style="rounded=0;whiteSpace=wrap;html=1;" vertex="1" parent="1">
          <mxGeometry x="190" y="530" width="60" height="30" as="geometry" />
        </mxCell>
        <mxCell id="ndKudGg0fzIpXVuhii56-73" style="edgeStyle=orthogonalEdgeStyle;rounded=0;orthogonalLoop=1;jettySize=auto;html=1;exitX=0;exitY=0.5;exitDx=0;exitDy=0;entryX=0.5;entryY=0;entryDx=0;entryDy=0;" edge="1" parent="1" source="ndKudGg0fzIpXVuhii56-66" target="ndKudGg0fzIpXVuhii56-72">
          <mxGeometry relative="1" as="geometry" />
        </mxCell>
      </root>
    </mxGraphModel>
  </diagram>
</mxfile>
